<?xml version="1.0" standalone="no"?>
<!DOCTYPE svg PUBLIC "-//W3C//DTD SVG 20010904//EN"
 "http://www.w3.org/TR/2001/REC-SVG-20010904/DTD/svg10.dtd">
<svg version="1.0" xmlns="http://www.w3.org/2000/svg"
 width="512.000000pt" height="512.000000pt" viewBox="0 0 512.000000 512.000000"
 preserveAspectRatio="xMidYMid meet">
<metadata>
Created by potrace 1.11, written by Peter Selinger 2001-2013
</metadata>
<g transform="translate(0.000000,512.000000) scale(0.100000,-0.100000)"
fill="#000000" stroke="none">
<path d="M1292 4277 c-5 -7 -33 -57 -62 -112 -29 -55 -65 -122 -80 -150 -15
-27 -58 -108 -95 -180 -37 -71 -90 -172 -117 -222 -27 -51 -65 -123 -84 -160
-20 -38 -48 -90 -63 -118 -14 -27 -62 -117 -105 -200 -44 -82 -93 -177 -111
-210 -18 -33 -56 -105 -85 -160 -29 -55 -75 -142 -102 -192 -27 -51 -46 -93
-41 -94 11 -1 1853 -1 1883 0 15 1 29 10 36 24 13 28 123 238 229 437 94 177
158 298 240 455 32 61 77 146 100 190 23 44 73 139 110 210 37 72 71 135 75
140 11 15 180 342 180 348 0 3 -427 5 -949 5 -717 0 -952 -2 -959 -11z"/>
<path d="M3985 3725 c-38 -8 -86 -16 -105 -19 -19 -3 -46 -8 -60 -11 -14 -3
-43 -7 -65 -10 -37 -5 -78 -12 -130 -21 -48 -9 -382 -65 -412 -69 -12 -2 -34
-6 -50 -9 -15 -3 -45 -9 -67 -12 -125 -19 -129 -21 -153 -72 -12 -26 -53 -105
-91 -177 -37 -71 -103 -197 -146 -280 -44 -82 -87 -163 -96 -180 -10 -16 -48
-88 -85 -160 -127 -245 -168 -320 -177 -326 -4 -3 -186 -5 -403 -5 -389 1
-395 1 -395 -19 0 -11 18 -114 40 -230 22 -115 43 -226 46 -245 16 -97 55
-297 66 -332 17 -57 87 -131 149 -158 76 -32 135 -31 349 9 30 5 71 12 90 15
19 3 84 14 143 24 116 21 112 22 121 -33 2 -16 11 -66 20 -110 8 -44 18 -96
21 -115 3 -19 12 -66 20 -105 8 -38 21 -112 31 -163 l16 -93 138 208 c75 114
185 281 244 371 59 89 112 162 119 163 7 0 23 3 37 5 41 7 252 43 294 50 21 3
47 7 58 9 20 4 250 43 303 51 17 3 37 7 45 9 8 2 35 6 60 9 25 3 55 8 66 10
12 2 39 7 60 11 238 37 391 67 428 84 51 22 100 70 128 125 23 44 30 136 16
209 -19 91 -65 341 -112 597 -9 47 -18 96 -21 110 -10 51 -47 251 -89 481 -24
130 -51 251 -61 268 -48 93 -141 148 -252 148 -37 1 -99 -5 -138 -12z"/>
</g>
</svg>
