<?xml version="1.0" encoding="UTF-8" standalone="no"?>
<!DOCTYPE svg PUBLIC "-//W3C//DTD SVG 1.1//EN"
 "http://www.w3.org/Graphics/SVG/1.1/DTD/svg11.dtd">
<!-- Generated by graphviz version 2.40.1 (20161225.0304)
 -->
<!-- Title: dependencies Pages: 1 -->
<svg width="1426pt" height="284pt"
 viewBox="0.00 0.00 1426.00 284.00" xmlns="http://www.w3.org/2000/svg" xmlns:xlink="http://www.w3.org/1999/xlink">
<g id="graph0" class="graph" transform="scale(1 1) rotate(0) translate(4 280)">
<title>dependencies</title>
<polygon fill="#ffffff" stroke="transparent" points="-4,4 -4,-280 1422,-280 1422,4 -4,4"/>
<text text-anchor="start" x="688.0091" y="-42.4" font-family="sans-serif" font-weight="bold" font-size="14.00" fill="#000000">Legend</text>
<polygon fill="#ffffb3" stroke="transparent" points="475,-10 475,-30 495,-30 495,-10 475,-10"/>
<text text-anchor="start" x="498.629" y="-15.4" font-family="sans-serif" font-size="14.00" fill="#000000"> &#160;Declarations</text>
<polygon fill="#8dd3c7" stroke="transparent" points="588,-10 588,-30 608,-30 608,-10 588,-10"/>
<text text-anchor="start" x="611.7251" y="-15.4" font-family="sans-serif" font-size="14.00" fill="#000000"> &#160;Module</text>
<polygon fill="#80b1d3" stroke="transparent" points="674,-10 674,-30 694,-30 694,-10 674,-10"/>
<text text-anchor="start" x="697.7812" y="-15.4" font-family="sans-serif" font-size="14.00" fill="#000000"> &#160;Bootstrap</text>
<polygon fill="#fdb462" stroke="transparent" points="771,-10 771,-30 791,-30 791,-10 771,-10"/>
<text text-anchor="start" x="794.6732" y="-15.4" font-family="sans-serif" font-size="14.00" fill="#000000"> &#160;Providers</text>
<polygon fill="#fb8072" stroke="transparent" points="867,-10 867,-30 887,-30 887,-10 867,-10"/>
<text text-anchor="start" x="890.7258" y="-15.4" font-family="sans-serif" font-size="14.00" fill="#000000"> &#160;Exports</text>
<g id="clust1" class="cluster">
<title>cluster_AppModule</title>
<polygon fill="none" stroke="#000000" stroke-dasharray="1,5" points="8,-70 8,-268 1410,-268 1410,-70 8,-70"/>
</g>
<g id="clust2" class="cluster">
<title>cluster_AppModule_declarations</title>
<polygon fill="none" stroke="#000000" points="168,-78 168,-130 1402,-130 1402,-78 168,-78"/>
</g>
<g id="clust12" class="cluster">
<title>cluster_AppModule_imports</title>
<polygon fill="none" stroke="#000000" points="16,-78 16,-130 160,-130 160,-78 16,-78"/>
</g>
<g id="clust14" class="cluster">
<title>cluster_AppModule_bootstrap</title>
<polygon fill="none" stroke="#000000" points="657,-208 657,-260 781,-260 781,-208 657,-208"/>
</g>
<!-- AppComponent -->
<g id="node1" class="node">
<title>AppComponent</title>
<polygon fill="#ffffb3" stroke="#000000" points="1393.9399,-122 1288.0601,-122 1288.0601,-86 1393.9399,-86 1393.9399,-122"/>
<text text-anchor="middle" x="1341" y="-99.8" font-family="Times,serif" font-size="14.00" fill="#000000">AppComponent</text>
</g>
<!-- AppModule -->
<g id="node10" class="node">
<title>AppModule</title>
<polygon fill="#8dd3c7" stroke="#000000" points="760.6571,-187 757.6571,-191 736.6571,-191 733.6571,-187 677.3429,-187 677.3429,-151 760.6571,-151 760.6571,-187"/>
<text text-anchor="middle" x="719" y="-164.8" font-family="Times,serif" font-size="14.00" fill="#000000">AppModule</text>
</g>
<!-- AppComponent&#45;&gt;AppModule -->
<g id="edge1" class="edge">
<title>AppComponent&#45;&gt;AppModule</title>
<path fill="none" stroke="#000000" d="M1341,-122.0109C1341,-144.4852 1341,-180 1341,-180 1341,-180 770.777,-180 770.777,-180"/>
<polygon fill="#000000" stroke="#000000" points="770.777,-176.5001 760.777,-180 770.777,-183.5001 770.777,-176.5001"/>
</g>
<!-- DashboardComponent -->
<g id="node2" class="node">
<title>DashboardComponent</title>
<polygon fill="#ffffb3" stroke="#000000" points="1269.9734,-122 1128.0266,-122 1128.0266,-86 1269.9734,-86 1269.9734,-122"/>
<text text-anchor="middle" x="1199" y="-99.8" font-family="Times,serif" font-size="14.00" fill="#000000">DashboardComponent</text>
</g>
<!-- DashboardComponent&#45;&gt;AppModule -->
<g id="edge2" class="edge">
<title>DashboardComponent&#45;&gt;AppModule</title>
<path fill="none" stroke="#000000" d="M1199,-122.1289C1199,-142.5724 1199,-173 1199,-173 1199,-173 770.7572,-173 770.7572,-173"/>
<polygon fill="#000000" stroke="#000000" points="770.7572,-169.5001 760.7572,-173 770.7571,-176.5001 770.7572,-169.5001"/>
</g>
<!-- ErrorComponent -->
<g id="node3" class="node">
<title>ErrorComponent</title>
<polygon fill="#ffffb3" stroke="#000000" points="1110.3669,-122 999.6331,-122 999.6331,-86 1110.3669,-86 1110.3669,-122"/>
<text text-anchor="middle" x="1055" y="-99.8" font-family="Times,serif" font-size="14.00" fill="#000000">ErrorComponent</text>
</g>
<!-- ErrorComponent&#45;&gt;AppModule -->
<g id="edge3" class="edge">
<title>ErrorComponent&#45;&gt;AppModule</title>
<path fill="none" stroke="#000000" d="M1055,-122.2667C1055,-140.5552 1055,-166 1055,-166 1055,-166 770.8753,-166 770.8753,-166"/>
<polygon fill="#000000" stroke="#000000" points="770.8753,-162.5001 760.8753,-166 770.8752,-169.5001 770.8753,-162.5001"/>
</g>
<!-- ForgotComponent -->
<g id="node4" class="node">
<title>ForgotComponent</title>
<polygon fill="#ffffb3" stroke="#000000" points="981.1667,-122 862.8333,-122 862.8333,-86 981.1667,-86 981.1667,-122"/>
<text text-anchor="middle" x="922" y="-99.8" font-family="Times,serif" font-size="14.00" fill="#000000">ForgotComponent</text>
</g>
<!-- ForgotComponent&#45;&gt;AppModule -->
<g id="edge4" class="edge">
<title>ForgotComponent&#45;&gt;AppModule</title>
<path fill="none" stroke="#000000" d="M922,-122.0091C922,-138.0494 922,-159 922,-159 922,-159 771.0617,-159 771.0617,-159"/>
<polygon fill="#000000" stroke="#000000" points="771.0618,-155.5001 761.0617,-159 771.0617,-162.5001 771.0618,-155.5001"/>
</g>
<!-- LoginComponent -->
<g id="node5" class="node">
<title>LoginComponent</title>
<polygon fill="#ffffb3" stroke="#000000" points="844.2758,-122 729.7242,-122 729.7242,-86 844.2758,-86 844.2758,-122"/>
<text text-anchor="middle" x="787" y="-99.8" font-family="Times,serif" font-size="14.00" fill="#000000">LoginComponent</text>
</g>
<!-- LoginComponent&#45;&gt;AppModule -->
<g id="edge5" class="edge">
<title>LoginComponent&#45;&gt;AppModule</title>
<path fill="none" stroke="#000000" d="M745.2202,-122.1061C745.2202,-122.1061 745.2202,-140.991 745.2202,-140.991"/>
<polygon fill="#000000" stroke="#000000" points="741.7203,-140.9909 745.2202,-150.991 748.7203,-140.991 741.7203,-140.9909"/>
</g>
<!-- ProfileComponent -->
<g id="node6" class="node">
<title>ProfileComponent</title>
<polygon fill="#ffffb3" stroke="#000000" points="711.9328,-122 592.0672,-122 592.0672,-86 711.9328,-86 711.9328,-122"/>
<text text-anchor="middle" x="652" y="-99.8" font-family="Times,serif" font-size="14.00" fill="#000000">ProfileComponent</text>
</g>
<!-- ProfileComponent&#45;&gt;AppModule -->
<g id="edge6" class="edge">
<title>ProfileComponent&#45;&gt;AppModule</title>
<path fill="none" stroke="#000000" d="M694.4439,-122.1061C694.4439,-122.1061 694.4439,-140.991 694.4439,-140.991"/>
<polygon fill="#000000" stroke="#000000" points="690.944,-140.9909 694.4439,-150.991 697.944,-140.991 690.944,-140.9909"/>
</g>
<!-- SettingsComponent -->
<g id="node7" class="node">
<title>SettingsComponent</title>
<polygon fill="#ffffb3" stroke="#000000" points="574.4468,-122 447.5532,-122 447.5532,-86 574.4468,-86 574.4468,-122"/>
<text text-anchor="middle" x="511" y="-99.8" font-family="Times,serif" font-size="14.00" fill="#000000">SettingsComponent</text>
</g>
<!-- SettingsComponent&#45;&gt;AppModule -->
<g id="edge7" class="edge">
<title>SettingsComponent&#45;&gt;AppModule</title>
<path fill="none" stroke="#000000" d="M511,-122.0091C511,-138.0494 511,-159 511,-159 511,-159 666.9081,-159 666.9081,-159"/>
<polygon fill="#000000" stroke="#000000" points="666.9081,-162.5001 676.9081,-159 666.9081,-155.5001 666.9081,-162.5001"/>
</g>
<!-- SignupComponent -->
<g id="node8" class="node">
<title>SignupComponent</title>
<polygon fill="#ffffb3" stroke="#000000" points="429.5056,-122 308.4944,-122 308.4944,-86 429.5056,-86 429.5056,-122"/>
<text text-anchor="middle" x="369" y="-99.8" font-family="Times,serif" font-size="14.00" fill="#000000">SignupComponent</text>
</g>
<!-- SignupComponent&#45;&gt;AppModule -->
<g id="edge8" class="edge">
<title>SignupComponent&#45;&gt;AppModule</title>
<path fill="none" stroke="#000000" d="M369,-122.2667C369,-140.5552 369,-166 369,-166 369,-166 667.1295,-166 667.1295,-166"/>
<polygon fill="#000000" stroke="#000000" points="667.1295,-169.5001 677.1295,-166 667.1294,-162.5001 667.1295,-169.5001"/>
</g>
<!-- SmallComponent -->
<g id="node9" class="node">
<title>SmallComponent</title>
<polygon fill="#ffffb3" stroke="#000000" points="290.0014,-122 175.9986,-122 175.9986,-86 290.0014,-86 290.0014,-122"/>
<text text-anchor="middle" x="233" y="-99.8" font-family="Times,serif" font-size="14.00" fill="#000000">SmallComponent</text>
</g>
<!-- SmallComponent&#45;&gt;AppModule -->
<g id="edge9" class="edge">
<title>SmallComponent&#45;&gt;AppModule</title>
<path fill="none" stroke="#000000" d="M233,-122.1289C233,-142.5724 233,-173 233,-173 233,-173 667.1433,-173 667.1433,-173"/>
<polygon fill="#000000" stroke="#000000" points="667.1433,-176.5001 677.1433,-173 667.1432,-169.5001 667.1433,-176.5001"/>
</g>
<!-- AppComponent  -->
<g id="node12" class="node">
<title>AppComponent </title>
<polygon fill="#80b1d3" stroke="#000000" points="773.439,-252 664.561,-252 664.561,-216 773.439,-216 773.439,-252"/>
<text text-anchor="middle" x="719" y="-229.8" font-family="Times,serif" font-size="14.00" fill="#000000">AppComponent </text>
</g>
<!-- AppModule&#45;&gt;AppComponent  -->
<g id="edge11" class="edge">
<title>AppModule&#45;&gt;AppComponent </title>
<path fill="none" stroke="#000000" stroke-dasharray="1,5" d="M719,-187.1061C719,-187.1061 719,-205.991 719,-205.991"/>
<polygon fill="#000000" stroke="#000000" points="715.5001,-205.9909 719,-215.991 722.5001,-205.991 715.5001,-205.9909"/>
</g>
<!-- AppRoutingModule -->
<g id="node11" class="node">
<title>AppRoutingModule</title>
<polygon fill="#8dd3c7" stroke="#000000" points="152.2744,-122 149.2744,-126 128.2744,-126 125.2744,-122 23.7256,-122 23.7256,-86 152.2744,-86 152.2744,-122"/>
<text text-anchor="middle" x="88" y="-99.8" font-family="Times,serif" font-size="14.00" fill="#000000">AppRoutingModule</text>
</g>
<!-- AppRoutingModule&#45;&gt;AppModule -->
<g id="edge10" class="edge">
<title>AppRoutingModule&#45;&gt;AppModule</title>
<path fill="none" stroke="#000000" d="M88,-122.0109C88,-144.4852 88,-180 88,-180 88,-180 667.1097,-180 667.1097,-180"/>
<polygon fill="#000000" stroke="#000000" points="667.1097,-183.5001 677.1097,-180 667.1096,-176.5001 667.1097,-183.5001"/>
</g>
</g>
</svg>
