<?xml version="1.0" encoding="UTF-8" standalone="no"?>
<!DOCTYPE svg PUBLIC "-//W3C//DTD SVG 1.1//EN"
 "http://www.w3.org/Graphics/SVG/1.1/DTD/svg11.dtd">
<!-- Generated by graphviz version 2.40.1 (20161225.0304)
 -->
<!-- Title: dependencies Pages: 1 -->
<svg width="3757pt" height="284pt"
 viewBox="0.00 0.00 3757.00 284.00" xmlns="http://www.w3.org/2000/svg" xmlns:xlink="http://www.w3.org/1999/xlink">
<g id="graph0" class="graph" transform="scale(1 1) rotate(0) translate(4 280)">
<title>dependencies</title>
<polygon fill="#ffffff" stroke="transparent" points="-4,4 -4,-280 3753,-280 3753,4 -4,4"/>
<text text-anchor="start" x="1853.5091" y="-42.4" font-family="sans-serif" font-weight="bold" font-size="14.00" fill="#000000">Legend</text>
<polygon fill="#ffffb3" stroke="transparent" points="1640.5,-10 1640.5,-30 1660.5,-30 1660.5,-10 1640.5,-10"/>
<text text-anchor="start" x="1664.129" y="-15.4" font-family="sans-serif" font-size="14.00" fill="#000000"> &#160;Declarations</text>
<polygon fill="#8dd3c7" stroke="transparent" points="1753.5,-10 1753.5,-30 1773.5,-30 1773.5,-10 1753.5,-10"/>
<text text-anchor="start" x="1777.2251" y="-15.4" font-family="sans-serif" font-size="14.00" fill="#000000"> &#160;Module</text>
<polygon fill="#80b1d3" stroke="transparent" points="1839.5,-10 1839.5,-30 1859.5,-30 1859.5,-10 1839.5,-10"/>
<text text-anchor="start" x="1863.2812" y="-15.4" font-family="sans-serif" font-size="14.00" fill="#000000"> &#160;Bootstrap</text>
<polygon fill="#fdb462" stroke="transparent" points="1936.5,-10 1936.5,-30 1956.5,-30 1956.5,-10 1936.5,-10"/>
<text text-anchor="start" x="1960.1732" y="-15.4" font-family="sans-serif" font-size="14.00" fill="#000000"> &#160;Providers</text>
<polygon fill="#fb8072" stroke="transparent" points="2032.5,-10 2032.5,-30 2052.5,-30 2052.5,-10 2032.5,-10"/>
<text text-anchor="start" x="2056.2258" y="-15.4" font-family="sans-serif" font-size="14.00" fill="#000000"> &#160;Exports</text>
<g id="clust1" class="cluster">
<title>cluster_AppModule</title>
<polygon fill="none" stroke="#000000" stroke-dasharray="1,5" points="8,-70 8,-268 3741,-268 3741,-70 8,-70"/>
</g>
<g id="clust2" class="cluster">
<title>cluster_AppModule_declarations</title>
<polygon fill="none" stroke="#000000" points="484,-78 484,-130 3733,-130 3733,-78 484,-78"/>
</g>
<g id="clust24" class="cluster">
<title>cluster_AppModule_imports</title>
<polygon fill="none" stroke="#000000" points="332,-78 332,-130 476,-130 476,-78 332,-78"/>
</g>
<g id="clust26" class="cluster">
<title>cluster_AppModule_bootstrap</title>
<polygon fill="none" stroke="#000000" points="2008,-208 2008,-260 2132,-260 2132,-208 2008,-208"/>
</g>
<g id="clust27" class="cluster">
<title>cluster_AppModule_providers</title>
<polygon fill="none" stroke="#000000" points="16,-78 16,-130 324,-130 324,-78 16,-78"/>
</g>
<!-- AppComponent -->
<g id="node1" class="node">
<title>AppComponent</title>
<polygon fill="#ffffb3" stroke="#000000" points="3724.9399,-122 3619.0601,-122 3619.0601,-86 3724.9399,-86 3724.9399,-122"/>
<text text-anchor="middle" x="3672" y="-99.8" font-family="Times,serif" font-size="14.00" fill="#000000">AppComponent</text>
</g>
<!-- AppModule -->
<g id="node22" class="node">
<title>AppModule</title>
<polygon fill="#8dd3c7" stroke="#000000" points="2111.6571,-187 2108.6571,-191 2087.6571,-191 2084.6571,-187 2028.3429,-187 2028.3429,-151 2111.6571,-151 2111.6571,-187"/>
<text text-anchor="middle" x="2070" y="-164.8" font-family="Times,serif" font-size="14.00" fill="#000000">AppModule</text>
</g>
<!-- AppComponent&#45;&gt;AppModule -->
<g id="edge1" class="edge">
<title>AppComponent&#45;&gt;AppModule</title>
<path fill="none" stroke="#000000" d="M3672,-122.3802C3672,-146.2785 3672,-185 3672,-185 3672,-185 2122.0262,-185 2122.0262,-185"/>
<polygon fill="#000000" stroke="#000000" points="2122.0262,-181.5001 2112.0262,-185 2122.0261,-188.5001 2122.0262,-181.5001"/>
</g>
<!-- CallbackComponent -->
<g id="node2" class="node">
<title>CallbackComponent</title>
<polygon fill="#ffffb3" stroke="#000000" points="3601.594,-122 3470.406,-122 3470.406,-86 3601.594,-86 3601.594,-122"/>
<text text-anchor="middle" x="3536" y="-99.8" font-family="Times,serif" font-size="14.00" fill="#000000">CallbackComponent</text>
</g>
<!-- CallbackComponent&#45;&gt;AppModule -->
<g id="edge2" class="edge">
<title>CallbackComponent&#45;&gt;AppModule</title>
<path fill="none" stroke="#000000" d="M3514.151,-122.1554C3514.151,-144.3519 3514.151,-179 3514.151,-179 3514.151,-179 2121.6632,-179 2121.6632,-179"/>
<polygon fill="#000000" stroke="#000000" points="2121.6632,-175.5001 2111.6632,-179 2121.6631,-182.5001 2121.6632,-175.5001"/>
</g>
<!-- CallbackComponent&#45;&gt;AppModule -->
<g id="edge3" class="edge">
<title>CallbackComponent&#45;&gt;AppModule</title>
<path fill="none" stroke="#000000" d="M3557.849,-122.0908C3557.849,-145.1328 3557.849,-182 3557.849,-182 3557.849,-182 2121.7383,-182 2121.7383,-182"/>
<polygon fill="#000000" stroke="#000000" points="2121.7383,-178.5001 2111.7383,-182 2121.7382,-185.5001 2121.7383,-178.5001"/>
</g>
<!-- DashboardComponent -->
<g id="node3" class="node">
<title>DashboardComponent</title>
<polygon fill="#ffffb3" stroke="#000000" points="3451.9734,-122 3310.0266,-122 3310.0266,-86 3451.9734,-86 3451.9734,-122"/>
<text text-anchor="middle" x="3381" y="-99.8" font-family="Times,serif" font-size="14.00" fill="#000000">DashboardComponent</text>
</g>
<!-- DashboardComponent&#45;&gt;AppModule -->
<g id="edge4" class="edge">
<title>DashboardComponent&#45;&gt;AppModule</title>
<path fill="none" stroke="#000000" d="M3381,-122.1686C3381,-143.498 3381,-176 3381,-176 3381,-176 2121.767,-176 2121.767,-176"/>
<polygon fill="#000000" stroke="#000000" points="2121.767,-172.5001 2111.767,-176 2121.7669,-179.5001 2121.767,-172.5001"/>
</g>
<!-- ErrorComponent -->
<g id="node4" class="node">
<title>ErrorComponent</title>
<polygon fill="#ffffb3" stroke="#000000" points="3292.3669,-122 3181.6331,-122 3181.6331,-86 3292.3669,-86 3292.3669,-122"/>
<text text-anchor="middle" x="3237" y="-99.8" font-family="Times,serif" font-size="14.00" fill="#000000">ErrorComponent</text>
</g>
<!-- ErrorComponent&#45;&gt;AppModule -->
<g id="edge5" class="edge">
<title>ErrorComponent&#45;&gt;AppModule</title>
<path fill="none" stroke="#000000" d="M3237,-122.0267C3237,-142.7672 3237,-174 3237,-174 3237,-174 2121.8782,-174 2121.8782,-174"/>
<polygon fill="#000000" stroke="#000000" points="2121.8783,-170.5001 2111.8782,-174 2121.8782,-177.5001 2121.8783,-170.5001"/>
</g>
<!-- FooterComponent -->
<g id="node5" class="node">
<title>FooterComponent</title>
<polygon fill="#ffffb3" stroke="#000000" points="3163.8809,-122 3046.1191,-122 3046.1191,-86 3163.8809,-86 3163.8809,-122"/>
<text text-anchor="middle" x="3105" y="-99.8" font-family="Times,serif" font-size="14.00" fill="#000000">FooterComponent</text>
</g>
<!-- FooterComponent&#45;&gt;AppModule -->
<g id="edge6" class="edge">
<title>FooterComponent&#45;&gt;AppModule</title>
<path fill="none" stroke="#000000" d="M3105,-122.308C3105,-142.1455 3105,-171 3105,-171 3105,-171 2121.8551,-171 2121.8551,-171"/>
<polygon fill="#000000" stroke="#000000" points="2121.8552,-167.5001 2111.8551,-171 2121.8551,-174.5001 2121.8552,-167.5001"/>
</g>
<!-- ForgotComponent -->
<g id="node6" class="node">
<title>ForgotComponent</title>
<polygon fill="#ffffb3" stroke="#000000" points="3028.1667,-122 2909.8333,-122 2909.8333,-86 3028.1667,-86 3028.1667,-122"/>
<text text-anchor="middle" x="2969" y="-99.8" font-family="Times,serif" font-size="14.00" fill="#000000">ForgotComponent</text>
</g>
<!-- ForgotComponent&#45;&gt;AppModule -->
<g id="edge7" class="edge">
<title>ForgotComponent&#45;&gt;AppModule</title>
<path fill="none" stroke="#000000" d="M2969,-122.1686C2969,-141.0898 2969,-168 2969,-168 2969,-168 2121.8558,-168 2121.8558,-168"/>
<polygon fill="#000000" stroke="#000000" points="2121.8558,-164.5001 2111.8558,-168 2121.8557,-171.5001 2121.8558,-164.5001"/>
</g>
<!-- LoginComponent -->
<g id="node7" class="node">
<title>LoginComponent</title>
<polygon fill="#ffffb3" stroke="#000000" points="2891.2758,-122 2776.7242,-122 2776.7242,-86 2891.2758,-86 2891.2758,-122"/>
<text text-anchor="middle" x="2834" y="-99.8" font-family="Times,serif" font-size="14.00" fill="#000000">LoginComponent</text>
</g>
<!-- LoginComponent&#45;&gt;AppModule -->
<g id="edge8" class="edge">
<title>LoginComponent&#45;&gt;AppModule</title>
<path fill="none" stroke="#000000" d="M2834,-122.302C2834,-140.2699 2834,-165 2834,-165 2834,-165 2121.891,-165 2121.891,-165"/>
<polygon fill="#000000" stroke="#000000" points="2121.891,-161.5001 2111.891,-165 2121.8909,-168.5001 2121.891,-161.5001"/>
</g>
<!-- MessagesComponent -->
<g id="node8" class="node">
<title>MessagesComponent</title>
<polygon fill="#ffffb3" stroke="#000000" points="2758.7548,-122 2623.2452,-122 2623.2452,-86 2758.7548,-86 2758.7548,-122"/>
<text text-anchor="middle" x="2691" y="-99.8" font-family="Times,serif" font-size="14.00" fill="#000000">MessagesComponent</text>
</g>
<!-- MessagesComponent&#45;&gt;AppModule -->
<g id="edge9" class="edge">
<title>MessagesComponent&#45;&gt;AppModule</title>
<path fill="none" stroke="#000000" d="M2691,-122.0225C2691,-139.3734 2691,-163 2691,-163 2691,-163 2121.7098,-163 2121.7098,-163"/>
<polygon fill="#000000" stroke="#000000" points="2121.7099,-159.5001 2111.7098,-163 2121.7098,-166.5001 2121.7099,-159.5001"/>
</g>
<!-- NavbarComponent -->
<g id="node9" class="node">
<title>NavbarComponent</title>
<polygon fill="#ffffb3" stroke="#000000" points="2605.0297,-122 2482.9703,-122 2482.9703,-86 2605.0297,-86 2605.0297,-122"/>
<text text-anchor="middle" x="2544" y="-99.8" font-family="Times,serif" font-size="14.00" fill="#000000">NavbarComponent</text>
</g>
<!-- NavbarComponent&#45;&gt;AppModule -->
<g id="edge10" class="edge">
<title>NavbarComponent&#45;&gt;AppModule</title>
<path fill="none" stroke="#000000" d="M2544,-122.027C2544,-138.3976 2544,-160 2544,-160 2544,-160 2122.0643,-160 2122.0643,-160"/>
<polygon fill="#000000" stroke="#000000" points="2122.0644,-156.5001 2112.0643,-160 2122.0643,-163.5001 2122.0644,-156.5001"/>
</g>
<!-- NewUserComponent -->
<g id="node10" class="node">
<title>NewUserComponent</title>
<polygon fill="#ffffb3" stroke="#000000" points="2465.1867,-122 2330.8133,-122 2330.8133,-86 2465.1867,-86 2465.1867,-122"/>
<text text-anchor="middle" x="2398" y="-99.8" font-family="Times,serif" font-size="14.00" fill="#000000">NewUserComponent</text>
</g>
<!-- NewUserComponent&#45;&gt;AppModule -->
<g id="edge11" class="edge">
<title>NewUserComponent&#45;&gt;AppModule</title>
<path fill="none" stroke="#000000" d="M2398,-122.2396C2398,-137.5706 2398,-157 2398,-157 2398,-157 2121.8746,-157 2121.8746,-157"/>
<polygon fill="#000000" stroke="#000000" points="2121.8746,-153.5001 2111.8746,-157 2121.8746,-160.5001 2121.8746,-153.5001"/>
</g>
<!-- PageNotFoundComponent -->
<g id="node11" class="node">
<title>PageNotFoundComponent</title>
<polygon fill="#ffffb3" stroke="#000000" points="2312.8243,-122 2147.1757,-122 2147.1757,-86 2312.8243,-86 2312.8243,-122"/>
<text text-anchor="middle" x="2230" y="-99.8" font-family="Times,serif" font-size="14.00" fill="#000000">PageNotFoundComponent</text>
</g>
<!-- PageNotFoundComponent&#45;&gt;AppModule -->
<g id="edge12" class="edge">
<title>PageNotFoundComponent&#45;&gt;AppModule</title>
<path fill="none" stroke="#000000" d="M2230,-122.0511C2230,-136.373 2230,-154 2230,-154 2230,-154 2122.0381,-154 2122.0381,-154"/>
<polygon fill="#000000" stroke="#000000" points="2122.0382,-150.5001 2112.0381,-154 2122.0381,-157.5001 2122.0382,-150.5001"/>
</g>
<!-- ProfileComponent -->
<g id="node12" class="node">
<title>ProfileComponent</title>
<polygon fill="#ffffb3" stroke="#000000" points="2129.9328,-122 2010.0672,-122 2010.0672,-86 2129.9328,-86 2129.9328,-122"/>
<text text-anchor="middle" x="2070" y="-99.8" font-family="Times,serif" font-size="14.00" fill="#000000">ProfileComponent</text>
</g>
<!-- ProfileComponent&#45;&gt;AppModule -->
<g id="edge13" class="edge">
<title>ProfileComponent&#45;&gt;AppModule</title>
<path fill="none" stroke="#000000" d="M2070,-122.1061C2070,-122.1061 2070,-140.991 2070,-140.991"/>
<polygon fill="#000000" stroke="#000000" points="2066.5001,-140.9909 2070,-150.991 2073.5001,-140.991 2066.5001,-140.9909"/>
</g>
<!-- ProtectedComponent -->
<g id="node13" class="node">
<title>ProtectedComponent</title>
<polygon fill="#ffffb3" stroke="#000000" points="1992.2008,-122 1857.7992,-122 1857.7992,-86 1992.2008,-86 1992.2008,-122"/>
<text text-anchor="middle" x="1925" y="-99.8" font-family="Times,serif" font-size="14.00" fill="#000000">ProtectedComponent</text>
</g>
<!-- ProtectedComponent&#45;&gt;AppModule -->
<g id="edge14" class="edge">
<title>ProtectedComponent&#45;&gt;AppModule</title>
<path fill="none" stroke="#000000" d="M1925,-122.0511C1925,-136.373 1925,-154 1925,-154 1925,-154 2018.06,-154 2018.06,-154"/>
<polygon fill="#000000" stroke="#000000" points="2018.06,-157.5001 2028.06,-154 2018.06,-150.5001 2018.06,-157.5001"/>
</g>
<!-- RoomsComponent -->
<g id="node14" class="node">
<title>RoomsComponent</title>
<polygon fill="#ffffb3" stroke="#000000" points="1839.5042,-122 1718.4958,-122 1718.4958,-86 1839.5042,-86 1839.5042,-122"/>
<text text-anchor="middle" x="1779" y="-99.8" font-family="Times,serif" font-size="14.00" fill="#000000">RoomsComponent</text>
</g>
<!-- RoomsComponent&#45;&gt;AppModule -->
<g id="edge15" class="edge">
<title>RoomsComponent&#45;&gt;AppModule</title>
<path fill="none" stroke="#000000" d="M1779,-122.2396C1779,-137.5706 1779,-157 1779,-157 1779,-157 2018.3068,-157 2018.3068,-157"/>
<polygon fill="#000000" stroke="#000000" points="2018.3068,-160.5001 2028.3068,-157 2018.3068,-153.5001 2018.3068,-160.5001"/>
</g>
<!-- SettingsComponent -->
<g id="node15" class="node">
<title>SettingsComponent</title>
<polygon fill="#ffffb3" stroke="#000000" points="1700.4468,-122 1573.5532,-122 1573.5532,-86 1700.4468,-86 1700.4468,-122"/>
<text text-anchor="middle" x="1637" y="-99.8" font-family="Times,serif" font-size="14.00" fill="#000000">SettingsComponent</text>
</g>
<!-- SettingsComponent&#45;&gt;AppModule -->
<g id="edge16" class="edge">
<title>SettingsComponent&#45;&gt;AppModule</title>
<path fill="none" stroke="#000000" d="M1637,-122.027C1637,-138.3976 1637,-160 1637,-160 1637,-160 2018.0887,-160 2018.0887,-160"/>
<polygon fill="#000000" stroke="#000000" points="2018.0887,-163.5001 2028.0887,-160 2018.0887,-156.5001 2018.0887,-163.5001"/>
</g>
<!-- SettingsProfileComponent -->
<g id="node16" class="node">
<title>SettingsProfileComponent</title>
<polygon fill="#ffffb3" stroke="#000000" points="1556.0462,-122 1391.9538,-122 1391.9538,-86 1556.0462,-86 1556.0462,-122"/>
<text text-anchor="middle" x="1474" y="-99.8" font-family="Times,serif" font-size="14.00" fill="#000000">SettingsProfileComponent</text>
</g>
<!-- SettingsProfileComponent&#45;&gt;AppModule -->
<g id="edge17" class="edge">
<title>SettingsProfileComponent&#45;&gt;AppModule</title>
<path fill="none" stroke="#000000" d="M1474,-122.0225C1474,-139.3734 1474,-163 1474,-163 1474,-163 2018.0904,-163 2018.0904,-163"/>
<polygon fill="#000000" stroke="#000000" points="2018.0905,-166.5001 2028.0904,-163 2018.0904,-159.5001 2018.0905,-166.5001"/>
</g>
<!-- SignupComponent -->
<g id="node17" class="node">
<title>SignupComponent</title>
<polygon fill="#ffffb3" stroke="#000000" points="1373.5056,-122 1252.4944,-122 1252.4944,-86 1373.5056,-86 1373.5056,-122"/>
<text text-anchor="middle" x="1313" y="-99.8" font-family="Times,serif" font-size="14.00" fill="#000000">SignupComponent</text>
</g>
<!-- SignupComponent&#45;&gt;AppModule -->
<g id="edge18" class="edge">
<title>SignupComponent&#45;&gt;AppModule</title>
<path fill="none" stroke="#000000" d="M1313,-122.302C1313,-140.2699 1313,-165 1313,-165 1313,-165 2018.2221,-165 2018.2221,-165"/>
<polygon fill="#000000" stroke="#000000" points="2018.2221,-168.5001 2028.2221,-165 2018.2221,-161.5001 2018.2221,-168.5001"/>
</g>
<!-- SmallComponent -->
<g id="node18" class="node">
<title>SmallComponent</title>
<polygon fill="#ffffb3" stroke="#000000" points="1234.0014,-122 1119.9986,-122 1119.9986,-86 1234.0014,-86 1234.0014,-122"/>
<text text-anchor="middle" x="1177" y="-99.8" font-family="Times,serif" font-size="14.00" fill="#000000">SmallComponent</text>
</g>
<!-- SmallComponent&#45;&gt;AppModule -->
<g id="edge19" class="edge">
<title>SmallComponent&#45;&gt;AppModule</title>
<path fill="none" stroke="#000000" d="M1177,-122.1686C1177,-141.0898 1177,-168 1177,-168 1177,-168 2018.1265,-168 2018.1265,-168"/>
<polygon fill="#000000" stroke="#000000" points="2018.1265,-171.5001 2028.1265,-168 2018.1265,-164.5001 2018.1265,-171.5001"/>
</g>
<!-- ViewFriendsHomeComponent -->
<g id="node19" class="node">
<title>ViewFriendsHomeComponent</title>
<polygon fill="#ffffb3" stroke="#000000" points="1101.8557,-122 914.1443,-122 914.1443,-86 1101.8557,-86 1101.8557,-122"/>
<text text-anchor="middle" x="1008" y="-99.8" font-family="Times,serif" font-size="14.00" fill="#000000">ViewFriendsHomeComponent</text>
</g>
<!-- ViewFriendsHomeComponent&#45;&gt;AppModule -->
<g id="edge20" class="edge">
<title>ViewFriendsHomeComponent&#45;&gt;AppModule</title>
<path fill="none" stroke="#000000" d="M1008,-122.308C1008,-142.1455 1008,-171 1008,-171 1008,-171 2018.0412,-171 2018.0412,-171"/>
<polygon fill="#000000" stroke="#000000" points="2018.0413,-174.5001 2028.0412,-171 2018.0412,-167.5001 2018.0413,-174.5001"/>
</g>
<!-- ViewLatestNewsComponent -->
<g id="node20" class="node">
<title>ViewLatestNewsComponent</title>
<polygon fill="#ffffb3" stroke="#000000" points="895.731,-122 718.269,-122 718.269,-86 895.731,-86 895.731,-122"/>
<text text-anchor="middle" x="807" y="-99.8" font-family="Times,serif" font-size="14.00" fill="#000000">ViewLatestNewsComponent</text>
</g>
<!-- ViewLatestNewsComponent&#45;&gt;AppModule -->
<g id="edge21" class="edge">
<title>ViewLatestNewsComponent&#45;&gt;AppModule</title>
<path fill="none" stroke="#000000" d="M807,-122.0267C807,-142.7672 807,-174 807,-174 807,-174 2018.3375,-174 2018.3375,-174"/>
<polygon fill="#000000" stroke="#000000" points="2018.3375,-177.5001 2028.3375,-174 2018.3374,-170.5001 2018.3375,-177.5001"/>
</g>
<!-- ViewNavigationHomeComponent -->
<g id="node21" class="node">
<title>ViewNavigationHomeComponent</title>
<polygon fill="#ffffb3" stroke="#000000" points="700.0702,-122 491.9298,-122 491.9298,-86 700.0702,-86 700.0702,-122"/>
<text text-anchor="middle" x="596" y="-99.8" font-family="Times,serif" font-size="14.00" fill="#000000">ViewNavigationHomeComponent</text>
</g>
<!-- ViewNavigationHomeComponent&#45;&gt;AppModule -->
<g id="edge22" class="edge">
<title>ViewNavigationHomeComponent&#45;&gt;AppModule</title>
<path fill="none" stroke="#000000" d="M596,-122.1686C596,-143.498 596,-176 596,-176 596,-176 2018.2604,-176 2018.2604,-176"/>
<polygon fill="#000000" stroke="#000000" points="2018.2604,-179.5001 2028.2604,-176 2018.2604,-172.5001 2018.2604,-179.5001"/>
</g>
<!-- AppComponent  -->
<g id="node24" class="node">
<title>AppComponent </title>
<polygon fill="#80b1d3" stroke="#000000" points="2124.439,-252 2015.561,-252 2015.561,-216 2124.439,-216 2124.439,-252"/>
<text text-anchor="middle" x="2070" y="-229.8" font-family="Times,serif" font-size="14.00" fill="#000000">AppComponent </text>
</g>
<!-- AppModule&#45;&gt;AppComponent  -->
<g id="edge24" class="edge">
<title>AppModule&#45;&gt;AppComponent </title>
<path fill="none" stroke="#000000" stroke-dasharray="1,5" d="M2070,-187.1061C2070,-187.1061 2070,-205.991 2070,-205.991"/>
<polygon fill="#000000" stroke="#000000" points="2066.5001,-205.9909 2070,-215.991 2073.5001,-205.991 2066.5001,-205.9909"/>
</g>
<!-- AppRoutingModule -->
<g id="node23" class="node">
<title>AppRoutingModule</title>
<polygon fill="#8dd3c7" stroke="#000000" points="468.2744,-122 465.2744,-126 444.2744,-126 441.2744,-122 339.7256,-122 339.7256,-86 468.2744,-86 468.2744,-122"/>
<text text-anchor="middle" x="404" y="-99.8" font-family="Times,serif" font-size="14.00" fill="#000000">AppRoutingModule</text>
</g>
<!-- AppRoutingModule&#45;&gt;AppModule -->
<g id="edge23" class="edge">
<title>AppRoutingModule&#45;&gt;AppModule</title>
<path fill="none" stroke="#000000" d="M404,-122.1554C404,-144.3519 404,-179 404,-179 404,-179 2017.9845,-179 2017.9845,-179"/>
<polygon fill="#000000" stroke="#000000" points="2017.9845,-182.5001 2027.9845,-179 2017.9845,-175.5001 2017.9845,-182.5001"/>
</g>
<!-- AuthService -->
<g id="node25" class="node">
<title>AuthService</title>
<ellipse fill="#fdb462" stroke="#000000" cx="257" cy="-104" rx="59.1083" ry="18"/>
<text text-anchor="middle" x="257" y="-99.8" font-family="Times,serif" font-size="14.00" fill="#000000">AuthService</text>
</g>
<!-- AuthService&#45;&gt;AppModule -->
<g id="edge25" class="edge">
<title>AuthService&#45;&gt;AppModule</title>
<path fill="none" stroke="#000000" d="M257,-122.0908C257,-145.1328 257,-182 257,-182 257,-182 2018.2912,-182 2018.2912,-182"/>
<polygon fill="#000000" stroke="#000000" points="2018.2912,-185.5001 2028.2912,-182 2018.2911,-178.5001 2018.2912,-185.5001"/>
</g>
<!-- OktaAuthService -->
<g id="node26" class="node">
<title>OktaAuthService</title>
<ellipse fill="#fdb462" stroke="#000000" cx="102" cy="-104" rx="78.1482" ry="18"/>
<text text-anchor="middle" x="102" y="-99.8" font-family="Times,serif" font-size="14.00" fill="#000000">OktaAuthService</text>
</g>
<!-- OktaAuthService&#45;&gt;AppModule -->
<g id="edge26" class="edge">
<title>OktaAuthService&#45;&gt;AppModule</title>
<path fill="none" stroke="#000000" d="M102,-122.3802C102,-146.2785 102,-185 102,-185 102,-185 2017.9851,-185 2017.9851,-185"/>
<polygon fill="#000000" stroke="#000000" points="2017.9851,-188.5001 2027.9851,-185 2017.985,-181.5001 2017.9851,-188.5001"/>
</g>
</g>
</svg>
