<svg width="95" height="95" viewBox="0 0 95 95" fill="none" xmlns="http://www.w3.org/2000/svg">
<circle cx="47.5" cy="47.5" r="47.5" fill="#C9EBFF"/>
<path d="M53.25 46C53.6562 46 54 46.1562 54.3125 46.4375C54.5938 46.75 54.75 47.0938 54.75 47.5V53.5C54.75 53.9375 54.5938 54.2812 54.3125 54.5625C54 54.875 53.6562 55 53.25 55H42.25C41.8125 55 41.4688 54.875 41.1875 54.5625C40.875 54.2812 40.75 53.9375 40.75 53.5V47.5C40.75 47.0938 40.875 46.75 41.1875 46.4375C41.4688 46.1562 41.8125 46 42.25 46H43V43.75C43 42.9062 43.1875 42.125 43.625 41.375C44.0625 40.6562 44.625 40.0938 45.375 39.6562C46.0938 39.2188 46.875 39 47.75 39C48.5938 39 49.375 39.2188 50.125 39.6562C50.8438 40.0938 51.4062 40.6562 51.8438 41.375C52.2812 42.125 52.5 42.9062 52.5 43.75V46H53.25ZM50 46V43.75C50 43.125 49.7812 42.5938 49.3438 42.1562C48.9062 41.7188 48.375 41.5 47.75 41.5C47.125 41.5 46.5938 41.7188 46.1562 42.1562C45.7188 42.5938 45.5 43.125 45.5 43.75V46H50Z" fill="#24B6FF"/>
</svg>
