<?xml version="1.0" encoding="UTF-8" standalone="no"?>
<!DOCTYPE svg PUBLIC "-//W3C//DTD SVG 1.1//EN"
 "http://www.w3.org/Graphics/SVG/1.1/DTD/svg11.dtd">
<!-- Generated by graphviz version 2.40.1 (20161225.0304)
 -->
<!-- Title: dependencies Pages: 1 -->
<svg width="1426pt" height="284pt"
 viewBox="0.00 0.00 1426.00 284.00" xmlns="http://www.w3.org/2000/svg" xmlns:xlink="http://www.w3.org/1999/xlink">
<g id="graph0" class="graph" transform="scale(1 1) rotate(0) translate(4 280)">
<title>dependencies</title>
<polygon fill="#ffffff" stroke="transparent" points="-4,4 -4,-280 1422,-280 1422,4 -4,4"/>
<text text-anchor="start" x="688.0091" y="-42.4" font-family="sans-serif" font-weight="bold" font-size="14.00" fill="#000000">Legend</text>
<polygon fill="#ffffb3" stroke="transparent" points="475,-10 475,-30 495,-30 495,-10 475,-10"/>
<text text-anchor="start" x="498.629" y="-15.4" font-family="sans-serif" font-size="14.00" fill="#000000"> &#160;Declarations</text>
<polygon fill="#8dd3c7" stroke="transparent" points="588,-10 588,-30 608,-30 608,-10 588,-10"/>
<text text-anchor="start" x="611.7251" y="-15.4" font-family="sans-serif" font-size="14.00" fill="#000000"> &#160;Module</text>
<polygon fill="#80b1d3" stroke="transparent" points="674,-10 674,-30 694,-30 694,-10 674,-10"/>
<text text-anchor="start" x="697.7812" y="-15.4" font-family="sans-serif" font-size="14.00" fill="#000000"> &#160;Bootstrap</text>
<polygon fill="#fdb462" stroke="transparent" points="771,-10 771,-30 791,-30 791,-10 771,-10"/>
<text text-anchor="start" x="794.6732" y="-15.4" font-family="sans-serif" font-size="14.00" fill="#000000"> &#160;Providers</text>
<polygon fill="#fb8072" stroke="transparent" points="867,-10 867,-30 887,-30 887,-10 867,-10"/>
<text text-anchor="start" x="890.7258" y="-15.4" font-family="sans-serif" font-size="14.00" fill="#000000"> &#160;Exports</text>
<g id="clust1" class="cluster">
<title>cluster_AppModule</title>
<polygon fill="none" stroke="#000000" stroke-dasharray="1,5" points="8,-70 8,-268 1410,-268 1410,-70 8,-70"/>
</g>
<g id="clust2" class="cluster">
<title>cluster_AppModule_declarations</title>
<polygon fill="none" stroke="#000000" points="168,-78 168,-130 1402,-130 1402,-78 168,-78"/>
</g>
<g id="clust12" class="cluster">
<title>cluster_AppModule_imports</title>
<polygon fill="none" stroke="#000000" points="16,-78 16,-130 160,-130 160,-78 16,-78"/>
</g>
<g id="clust14" class="cluster">
<title>cluster_AppModule_bootstrap</title>
<polygon fill="none" stroke="#000000" points="657,-208 657,-260 781,-260 781,-208 657,-208"/>
</g>
<!-- AppComponent -->
<g id="node1" class="node">
<title>AppComponent</title>
<polygon fill="#ffffb3" stroke="#000000" points="1393.9399,-122 1288.0601,-122 1288.0601,-86 1393.9399,-86 1393.9399,-122"/>
<text text-anchor="middle" x="1341" y="-99.8" font-family="Times,serif" font-size="14.00" fill="#000000">AppComponent</text>
</g>
<!-- AppModule -->
<g id="node10" class="node">
<title>AppModule</title>
<polygon fill="#8dd3c7" stroke="#000000" points="760.6571,-187 757.6571,-191 736.6571,-191 733.6571,-187 677.3429,-187 677.3429,-151 760.6571,-151 760.6571,-187"/>
<text text-anchor="middle" x="719" y="-164.8" font-family="Times,serif" font-size="14.00" fill="#000000">AppModule</text>
</g>
<!-- AppComponent&#45;&gt;AppModule -->
<g id="edge1" class="edge">
<title>AppComponent&#45;&gt;AppModule</title>
<path fill="none" stroke="#000000" d="M1358.5732,-122.3228C1358.5732,-145.6602 1358.5732,-183 1358.5732,-183 1358.5732,-183 770.9642,-183 770.9642,-183"/>
<polygon fill="#000000" stroke="#000000" points="770.9642,-179.5001 760.9642,-183 770.9641,-186.5001 770.9642,-179.5001"/>
</g>
<!-- AppComponent&#45;&gt;AppModule -->
<g id="edge12" class="edge">
<title>AppComponent&#45;&gt;AppModule</title>
<path fill="none" stroke="#000000" d="M1323.4268,-122.1554C1323.4268,-144.3519 1323.4268,-179 1323.4268,-179 1323.4268,-179 771.0222,-179 771.0222,-179"/>
<polygon fill="#000000" stroke="#000000" points="771.0223,-175.5001 761.0222,-179 771.0222,-182.5001 771.0223,-175.5001"/>
</g>
<!-- DashboardComponent -->
<g id="node2" class="node">
<title>DashboardComponent</title>
<polygon fill="#ffffb3" stroke="#000000" points="1269.9734,-122 1128.0266,-122 1128.0266,-86 1269.9734,-86 1269.9734,-122"/>
<text text-anchor="middle" x="1199" y="-99.8" font-family="Times,serif" font-size="14.00" fill="#000000">DashboardComponent</text>
</g>
<!-- DashboardComponent&#45;&gt;AppModule -->
<g id="edge2" class="edge">
<title>DashboardComponent&#45;&gt;AppModule</title>
<path fill="none" stroke="#000000" d="M1222.6622,-122.2843C1222.6622,-143.3211 1222.6622,-175 1222.6622,-175 1222.6622,-175 771.0757,-175 771.0757,-175"/>
<polygon fill="#000000" stroke="#000000" points="771.0757,-171.5001 761.0757,-175 771.0756,-178.5001 771.0757,-171.5001"/>
</g>
<!-- DashboardComponent&#45;&gt;AppModule -->
<g id="edge13" class="edge">
<title>DashboardComponent&#45;&gt;AppModule</title>
<path fill="none" stroke="#000000" d="M1175.3378,-122.308C1175.3378,-142.1455 1175.3378,-171 1175.3378,-171 1175.3378,-171 770.7067,-171 770.7067,-171"/>
<polygon fill="#000000" stroke="#000000" points="770.7067,-167.5001 760.7067,-171 770.7066,-174.5001 770.7067,-167.5001"/>
</g>
<!-- ErrorComponent -->
<g id="node3" class="node">
<title>ErrorComponent</title>
<polygon fill="#ffffb3" stroke="#000000" points="1110.3669,-122 999.6331,-122 999.6331,-86 1110.3669,-86 1110.3669,-122"/>
<text text-anchor="middle" x="1055" y="-99.8" font-family="Times,serif" font-size="14.00" fill="#000000">ErrorComponent</text>
</g>
<!-- ErrorComponent&#45;&gt;AppModule -->
<g id="edge3" class="edge">
<title>ErrorComponent&#45;&gt;AppModule</title>
<path fill="none" stroke="#000000" d="M1073.4778,-122.2222C1073.4778,-140.8285 1073.4778,-167 1073.4778,-167 1073.4778,-167 770.7055,-167 770.7055,-167"/>
<polygon fill="#000000" stroke="#000000" points="770.7055,-163.5001 760.7055,-167 770.7054,-170.5001 770.7055,-163.5001"/>
</g>
<!-- ErrorComponent&#45;&gt;AppModule -->
<g id="edge14" class="edge">
<title>ErrorComponent&#45;&gt;AppModule</title>
<path fill="none" stroke="#000000" d="M1036.5222,-122.0225C1036.5222,-139.3734 1036.5222,-163 1036.5222,-163 1036.5222,-163 770.837,-163 770.837,-163"/>
<polygon fill="#000000" stroke="#000000" points="770.837,-159.5001 760.837,-163 770.837,-166.5001 770.837,-159.5001"/>
</g>
<!-- ForgotComponent -->
<g id="node4" class="node">
<title>ForgotComponent</title>
<polygon fill="#ffffb3" stroke="#000000" points="981.1667,-122 862.8333,-122 862.8333,-86 981.1667,-86 981.1667,-122"/>
<text text-anchor="middle" x="922" y="-99.8" font-family="Times,serif" font-size="14.00" fill="#000000">ForgotComponent</text>
</g>
<!-- ForgotComponent&#45;&gt;AppModule -->
<g id="edge4" class="edge">
<title>ForgotComponent&#45;&gt;AppModule</title>
<path fill="none" stroke="#000000" d="M902.2223,-122.1243C902.2223,-136.7832 902.2223,-155 902.2223,-155 902.2223,-155 771.0349,-155 771.0349,-155"/>
<polygon fill="#000000" stroke="#000000" points="771.0349,-151.5001 761.0349,-155 771.0349,-158.5001 771.0349,-151.5001"/>
</g>
<!-- ForgotComponent&#45;&gt;AppModule -->
<g id="edge15" class="edge">
<title>ForgotComponent&#45;&gt;AppModule</title>
<path fill="none" stroke="#000000" d="M941.7777,-122.0091C941.7777,-138.0494 941.7777,-159 941.7777,-159 941.7777,-159 770.9028,-159 770.9028,-159"/>
<polygon fill="#000000" stroke="#000000" points="770.9028,-155.5001 760.9028,-159 770.9027,-162.5001 770.9028,-155.5001"/>
</g>
<!-- LoginComponent -->
<g id="node5" class="node">
<title>LoginComponent</title>
<polygon fill="#ffffb3" stroke="#000000" points="844.2758,-122 729.7242,-122 729.7242,-86 844.2758,-86 844.2758,-122"/>
<text text-anchor="middle" x="787" y="-99.8" font-family="Times,serif" font-size="14.00" fill="#000000">LoginComponent</text>
</g>
<!-- LoginComponent&#45;&gt;AppModule -->
<g id="edge5" class="edge">
<title>LoginComponent&#45;&gt;AppModule</title>
<path fill="none" stroke="#000000" d="M740.0175,-122.1061C740.0175,-122.1061 740.0175,-140.991 740.0175,-140.991"/>
<polygon fill="#000000" stroke="#000000" points="736.5176,-140.9909 740.0175,-150.991 743.5176,-140.991 736.5176,-140.9909"/>
</g>
<!-- LoginComponent&#45;&gt;AppModule -->
<g id="edge16" class="edge">
<title>LoginComponent&#45;&gt;AppModule</title>
<path fill="none" stroke="#000000" d="M750.4229,-122.1061C750.4229,-122.1061 750.4229,-140.991 750.4229,-140.991"/>
<polygon fill="#000000" stroke="#000000" points="746.923,-140.9909 750.4229,-150.991 753.923,-140.991 746.923,-140.9909"/>
</g>
<!-- ProfileComponent -->
<g id="node6" class="node">
<title>ProfileComponent</title>
<polygon fill="#ffffb3" stroke="#000000" points="711.9328,-122 592.0672,-122 592.0672,-86 711.9328,-86 711.9328,-122"/>
<text text-anchor="middle" x="652" y="-99.8" font-family="Times,serif" font-size="14.00" fill="#000000">ProfileComponent</text>
</g>
<!-- ProfileComponent&#45;&gt;AppModule -->
<g id="edge6" class="edge">
<title>ProfileComponent&#45;&gt;AppModule</title>
<path fill="none" stroke="#000000" d="M700.2013,-122.1061C700.2013,-122.1061 700.2013,-140.991 700.2013,-140.991"/>
<polygon fill="#000000" stroke="#000000" points="696.7014,-140.9909 700.2013,-150.991 703.7014,-140.991 696.7014,-140.9909"/>
</g>
<!-- ProfileComponent&#45;&gt;AppModule -->
<g id="edge17" class="edge">
<title>ProfileComponent&#45;&gt;AppModule</title>
<path fill="none" stroke="#000000" d="M688.6865,-122.1061C688.6865,-122.1061 688.6865,-140.991 688.6865,-140.991"/>
<polygon fill="#000000" stroke="#000000" points="685.1866,-140.9909 688.6865,-150.991 692.1866,-140.991 685.1866,-140.9909"/>
</g>
<!-- SettingsComponent -->
<g id="node7" class="node">
<title>SettingsComponent</title>
<polygon fill="#ffffb3" stroke="#000000" points="574.4468,-122 447.5532,-122 447.5532,-86 574.4468,-86 574.4468,-122"/>
<text text-anchor="middle" x="511" y="-99.8" font-family="Times,serif" font-size="14.00" fill="#000000">SettingsComponent</text>
</g>
<!-- SettingsComponent&#45;&gt;AppModule -->
<g id="edge7" class="edge">
<title>SettingsComponent&#45;&gt;AppModule</title>
<path fill="none" stroke="#000000" d="M532.0743,-122.1243C532.0743,-136.7832 532.0743,-155 532.0743,-155 532.0743,-155 667.0502,-155 667.0502,-155"/>
<polygon fill="#000000" stroke="#000000" points="667.0503,-158.5001 677.0502,-155 667.0502,-151.5001 667.0503,-158.5001"/>
</g>
<!-- SettingsComponent&#45;&gt;AppModule -->
<g id="edge18" class="edge">
<title>SettingsComponent&#45;&gt;AppModule</title>
<path fill="none" stroke="#000000" d="M489.9257,-122.0091C489.9257,-138.0494 489.9257,-159 489.9257,-159 489.9257,-159 667.2506,-159 667.2506,-159"/>
<polygon fill="#000000" stroke="#000000" points="667.2506,-162.5001 677.2506,-159 667.2506,-155.5001 667.2506,-162.5001"/>
</g>
<!-- SignupComponent -->
<g id="node8" class="node">
<title>SignupComponent</title>
<polygon fill="#ffffb3" stroke="#000000" points="429.5056,-122 308.4944,-122 308.4944,-86 429.5056,-86 429.5056,-122"/>
<text text-anchor="middle" x="369" y="-99.8" font-family="Times,serif" font-size="14.00" fill="#000000">SignupComponent</text>
</g>
<!-- SignupComponent&#45;&gt;AppModule -->
<g id="edge8" class="edge">
<title>SignupComponent&#45;&gt;AppModule</title>
<path fill="none" stroke="#000000" d="M389.1676,-122.0225C389.1676,-139.3734 389.1676,-163 389.1676,-163 389.1676,-163 667.2265,-163 667.2265,-163"/>
<polygon fill="#000000" stroke="#000000" points="667.2265,-166.5001 677.2265,-163 667.2265,-159.5001 667.2265,-166.5001"/>
</g>
<!-- SignupComponent&#45;&gt;AppModule -->
<g id="edge19" class="edge">
<title>SignupComponent&#45;&gt;AppModule</title>
<path fill="none" stroke="#000000" d="M348.8324,-122.2222C348.8324,-140.8285 348.8324,-167 348.8324,-167 348.8324,-167 667.2566,-167 667.2566,-167"/>
<polygon fill="#000000" stroke="#000000" points="667.2567,-170.5001 677.2566,-167 667.2566,-163.5001 667.2567,-170.5001"/>
</g>
<!-- SmallComponent -->
<g id="node9" class="node">
<title>SmallComponent</title>
<polygon fill="#ffffb3" stroke="#000000" points="290.0014,-122 175.9986,-122 175.9986,-86 290.0014,-86 290.0014,-122"/>
<text text-anchor="middle" x="233" y="-99.8" font-family="Times,serif" font-size="14.00" fill="#000000">SmallComponent</text>
</g>
<!-- SmallComponent&#45;&gt;AppModule -->
<g id="edge9" class="edge">
<title>SmallComponent&#45;&gt;AppModule</title>
<path fill="none" stroke="#000000" d="M213.9998,-122.2843C213.9998,-143.3211 213.9998,-175 213.9998,-175 213.9998,-175 667.2441,-175 667.2441,-175"/>
<polygon fill="#000000" stroke="#000000" points="667.2441,-178.5001 677.2441,-175 667.244,-171.5001 667.2441,-178.5001"/>
</g>
<!-- SmallComponent&#45;&gt;AppModule -->
<g id="edge20" class="edge">
<title>SmallComponent&#45;&gt;AppModule</title>
<path fill="none" stroke="#000000" d="M252.0002,-122.308C252.0002,-142.1455 252.0002,-171 252.0002,-171 252.0002,-171 667.1459,-171 667.1459,-171"/>
<polygon fill="#000000" stroke="#000000" points="667.1459,-174.5001 677.1459,-171 667.1459,-167.5001 667.1459,-174.5001"/>
</g>
<!-- AppComponent  -->
<g id="node12" class="node">
<title>AppComponent </title>
<polygon fill="#80b1d3" stroke="#000000" points="773.439,-252 664.561,-252 664.561,-216 773.439,-216 773.439,-252"/>
<text text-anchor="middle" x="719" y="-229.8" font-family="Times,serif" font-size="14.00" fill="#000000">AppComponent </text>
</g>
<!-- AppModule&#45;&gt;AppComponent  -->
<g id="edge11" class="edge">
<title>AppModule&#45;&gt;AppComponent </title>
<path fill="none" stroke="#000000" stroke-dasharray="1,5" d="M732.9427,-187.1061C732.9427,-187.1061 732.9427,-205.991 732.9427,-205.991"/>
<polygon fill="#000000" stroke="#000000" points="729.4428,-205.9909 732.9427,-215.991 736.4428,-205.991 729.4428,-205.9909"/>
</g>
<!-- AppModule&#45;&gt;AppComponent  -->
<g id="edge22" class="edge">
<title>AppModule&#45;&gt;AppComponent </title>
<path fill="none" stroke="#000000" stroke-dasharray="1,5" d="M705.0573,-187.1061C705.0573,-187.1061 705.0573,-205.991 705.0573,-205.991"/>
<polygon fill="#000000" stroke="#000000" points="701.5574,-205.9909 705.0573,-215.991 708.5574,-205.991 701.5574,-205.9909"/>
</g>
<!-- AppRoutingModule -->
<g id="node11" class="node">
<title>AppRoutingModule</title>
<polygon fill="#8dd3c7" stroke="#000000" points="152.2744,-122 149.2744,-126 128.2744,-126 125.2744,-122 23.7256,-122 23.7256,-86 152.2744,-86 152.2744,-122"/>
<text text-anchor="middle" x="88" y="-99.8" font-family="Times,serif" font-size="14.00" fill="#000000">AppRoutingModule</text>
</g>
<!-- AppRoutingModule&#45;&gt;AppModule -->
<g id="edge10" class="edge">
<title>AppRoutingModule&#45;&gt;AppModule</title>
<path fill="none" stroke="#000000" d="M109.4624,-122.1554C109.4624,-144.3519 109.4624,-179 109.4624,-179 109.4624,-179 667.104,-179 667.104,-179"/>
<polygon fill="#000000" stroke="#000000" points="667.104,-182.5001 677.104,-179 667.104,-175.5001 667.104,-182.5001"/>
</g>
<!-- AppRoutingModule&#45;&gt;AppModule -->
<g id="edge21" class="edge">
<title>AppRoutingModule&#45;&gt;AppModule</title>
<path fill="none" stroke="#000000" d="M66.5376,-122.3228C66.5376,-145.6602 66.5376,-183 66.5376,-183 66.5376,-183 667.193,-183 667.193,-183"/>
<polygon fill="#000000" stroke="#000000" points="667.193,-186.5001 677.193,-183 667.193,-179.5001 667.193,-186.5001"/>
</g>
</g>
</svg>
